<?xml version="1.0" encoding="UTF-8"?>
<!DOCTYPE svg PUBLIC "-//W3C//DTD SVG 1.1//EN" "http://www.w3.org/Graphics/SVG/1.1/DTD/svg11.dtd">
<!-- Creator: CorelDRAW X8 -->
<svg xmlns="http://www.w3.org/2000/svg" xml:space="preserve" width="660px" height="408px" version="1.1" style="shape-rendering:geometricPrecision; text-rendering:geometricPrecision; image-rendering:optimizeQuality; fill-rule:evenodd; clip-rule:evenodd"
viewBox="0 0 2689 1663"
 xmlns:xlink="http://www.w3.org/1999/xlink">
 <defs>
  <style type="text/css">
   <![CDATA[
    .fil2 {fill:#069C55}
    .fil1 {fill:#29264D}
    .fil3 {fill:#F6D82A}
    .fil0 {fill:#28254C;fill-rule:nonzero}
   ]]>
  </style>
 </defs>
 <g id="Layer_x0020_1">
  <metadata id="CorelCorpID_0Corel-Layer"/>
  <g id="_2355474217456">
   <path class="fil0" d="M108 1416c70,0 111,-28 111,-84 0,-49 -27,-70 -85,-81 -49,-8 -57,-13 -57,-25 0,-10 9,-17 28,-17 20,0 33,6 37,25l70 -10c-9,-51 -43,-75 -103,-75 -64,0 -105,30 -105,84 0,54 38,70 85,78 48,8 57,12 57,26 0,14 -11,19 -34,19 -24,0 -38,-8 -42,-29l-70 10c7,55 42,79 108,79zm325 -261l-213 0 0 69 71 0 0 185 72 0 0 -185 70 0 0 -69zm172 0l1 146c0,33 -17,47 -41,47 -27,0 -43,-14 -43,-47l0 -146 -72 0 0 154c0,68 41,107 112,107 70,0 114,-41 114,-108l0 -153 -71 0zm211 1l-103 0 0 253 101 0c85,0 137,-48 137,-128 0,-80 -51,-125 -135,-125zm-5 191l-25 -1 0 -129 24 1c42,0 64,21 64,65 0,44 -22,64 -63,64zm167 62l73 0 0 -254 -73 0 0 254zm230 7c77,0 131,-51 131,-135 0,-84 -52,-132 -131,-132 -76,0 -130,50 -130,134 0,85 52,133 130,133zm0 -66c-33,0 -53,-24 -53,-68 0,-43 21,-68 53,-68 33,0 54,25 54,68 0,44 -21,68 -54,68zm411 -76c17,-11 27,-29 27,-51 0,-44 -32,-68 -89,-68l-122 0 0 254 127 0c60,0 93,-30 93,-75 0,-30 -14,-50 -36,-60zm-73 -64c17,0 27,6 27,22 0,13 -9,21 -27,21l-39 0 0 -43 39 0zm4 145l-43 0 0 -48 43 0c20,0 31,8 31,23 0,18 -12,25 -31,25zm272 54l82 0 -51 -90c28,-14 45,-39 45,-75 0,-57 -36,-89 -100,-89l-116 0 0 254 72 0 0 -76 28 0 40 76zm-68 -191l35 0c22,0 35,8 35,28 0,19 -13,28 -35,28l-35 0 0 -56zm331 191l74 0 -85 -254 -89 0 -85 254 72 0 13 -41 87 0 13 41zm-82 -98l21 -68 4 -16 4 16 22 68 -51 0zm257 105c70,0 111,-28 111,-84 0,-49 -27,-70 -85,-81 -49,-8 -57,-13 -57,-25 0,-10 9,-17 29,-17 19,0 32,6 36,25l70 -10c-9,-51 -42,-75 -103,-75 -64,0 -105,30 -105,84 0,54 38,70 85,78 48,8 57,12 57,26 0,14 -11,19 -34,19 -24,0 -38,-8 -42,-29l-70 10c7,55 42,79 108,79zm136 -7l73 0 0 -254 -73 0 0 254zm186 -66l0 -188 -72 0 0 254 179 0 0 -66 -107 0z"/>
   <g>
    <path class="fil1" d="M1320 342c-68,13 -132,76 -115,165 13,69 79,130 165,113 69,-13 131,-79 114,-164 -15,-69 -77,-130 -164,-114z"/>
    <path class="fil2" d="M1323 3c-42,8 -67,22 -89,51 -20,25 -37,66 -30,110 12,69 76,131 162,118 70,-11 131,-76 119,-161 -10,-69 -79,-134 -162,-118z"/>
    <path class="fil2" d="M1660 3c-45,10 -67,23 -89,52 -77,101 6,248 135,227 124,-21 161,-178 64,-251 -26,-20 -68,-38 -110,-28z"/>
    <path class="fil2" d="M980 3c-78,18 -129,83 -114,165 13,68 81,130 165,113 129,-26 152,-182 60,-251 -25,-20 -69,-36 -111,-27z"/>
    <path class="fil2" d="M1662 681c-71,10 -133,76 -119,162 12,69 76,130 164,117 67,-11 131,-80 115,-164 -13,-72 -76,-128 -160,-115z"/>
    <path class="fil2" d="M984 680c-72,12 -131,75 -118,164 10,68 79,130 163,115 70,-12 131,-78 116,-163 -12,-69 -77,-129 -161,-116z"/>
    <path class="fil3" d="M988 341c-36,7 -67,18 -92,50 -22,27 -37,61 -30,109 10,74 76,133 159,121 69,-9 132,-75 121,-159 -11,-79 -85,-134 -158,-121z"/>
    <path class="fil3" d="M1660 341c-188,41 -134,306 46,280 70,-11 130,-78 117,-164 -12,-79 -94,-131 -163,-116z"/>
    <path class="fil2" d="M1330 680c-47,6 -72,23 -93,49 -85,102 -1,246 125,231 71,-8 133,-75 123,-158 -8,-70 -73,-132 -155,-122z"/>
   </g>
   <g>
    <path class="fil0" d="M348 1637l0 -23 48 0 0 -23 -48 0 0 -20 51 0 0 -24 -79 0 0 114 81 0 0 -24 -53 0zm168 -90l-27 80 -25 -80 -30 0 40 114 29 0 41 -114 -28 0zm94 90l0 -23 48 0 0 -23 -48 0 0 -20 51 0 0 -24 -79 0 0 114 81 0 0 -24 -53 0zm169 -90l0 50 1 18 -43 -68 -29 0 0 114 27 0 0 -52 -1 -18 45 70 27 0 0 -114 -27 0zm161 0l-93 0 0 26 33 0 0 88 28 0 0 -88 32 0 0 -26zm88 116c33,0 57,-22 57,-59 0,-38 -23,-59 -57,-59 -34,0 -57,23 -57,60 0,37 22,58 57,58zm0 -25c-17,0 -28,-12 -28,-34 0,-22 11,-34 28,-34 17,0 28,12 28,34 0,22 -12,34 -28,34zm141 25c31,0 48,-12 48,-36 0,-21 -12,-31 -38,-36 -23,-4 -27,-6 -27,-13 0,-6 5,-10 16,-10 11,0 18,4 20,14l26 -5c-4,-22 -19,-32 -45,-32 -27,0 -45,13 -45,36 0,23 16,30 38,34 23,4 27,6 27,14 0,8 -6,11 -19,11 -13,0 -19,-4 -21,-15l-27 5c4,23 19,33 47,33z"/>
    <polygon class="fil0" points="1327,1659 1341,1659 1341,1549 1327,1549 "/>
    <path class="fil0" d="M1489 1562l-32 0 0 84 31 0c26,0 43,-16 43,-42 0,-26 -16,-42 -42,-42zm-2 72l-17 0 0 -60 17 0c19,0 30,11 30,30 0,20 -11,30 -30,30zm96 0l0 -25 40 0 0 -12 -40 0 0 -23 43 0 0 -12 -57 0 0 84 58 0 0 -12 -44 0zm110 14c21,0 33,-10 33,-25 0,-15 -8,-23 -29,-26 -19,-4 -23,-6 -23,-14 0,-7 6,-11 18,-11 11,0 18,4 20,14l12 -3c-3,-15 -14,-23 -31,-23 -19,0 -32,9 -32,25 0,15 10,21 28,24 19,3 24,7 24,15 0,8 -7,12 -20,12 -14,0 -19,-4 -21,-14l-12 3c4,16 12,23 33,23zm103 -86l-32 0 0 84 31 0c26,0 43,-16 43,-42 0,-26 -16,-42 -42,-42zm-2 72l-17 0 0 -60 17 0c19,0 30,11 30,30 0,20 -11,30 -30,30zm96 0l0 -25 40 0 0 -12 -40 0 0 -23 43 0 0 -12 -57 0 0 84 58 0 0 -12 -44 0z"/>
    <path class="fil0" d="M2059 1562c0,10 -8,17 -23,18l2 13c10,-1 17,-3 21,-8l0 61 13 0 0 -84 -13 0zm88 -2c-16,0 -31,10 -31,30 0,18 11,27 28,27 9,0 19,-3 24,-12 0,24 -7,31 -20,31 -9,0 -15,-4 -18,-14l-12 4c3,15 13,22 29,22 23,0 33,-15 33,-44 0,-29 -11,-44 -33,-44zm0 45c-11,0 -18,-5 -18,-16 0,-11 8,-17 18,-17 11,0 18,7 18,17 0,11 -8,16 -18,16zm99 -45c-16,0 -31,10 -31,30 0,18 11,27 28,27 9,0 19,-3 24,-12 0,24 -7,31 -20,31 -9,0 -15,-4 -18,-14l-12 4c3,15 13,22 29,22 23,0 33,-15 33,-44 0,-29 -11,-44 -33,-44zm0 45c-11,0 -18,-5 -18,-16 0,-11 8,-17 18,-17 11,0 18,7 18,17 0,11 -8,16 -18,16zm122 -43l-57 0 0 13 41 0c-16,21 -25,45 -25,72l13 -1c0,-29 10,-50 28,-72l0 -12z"/>
   </g>
  </g>
 </g>
</svg>
